<svg width="311.414" height="67.725" viewBox="0 0 82.395 17.919" xmlns:xlink="http://www.w3.org/1999/xlink" xmlns="http://www.w3.org/2000/svg"><defs><linearGradient gradientTransform="matrix(.35278 0 0 .35278 71.629 66.357)" xlink:href="#a" id="b" x1="94.702" y1="42.082" x2="121.976" y2="7.231" gradientUnits="userSpaceOnUse"/><linearGradient id="a"><stop style="stop-color:#f06;stop-opacity:1" offset="0"/><stop style="stop-color:#3771c8;stop-opacity:1" offset="1"/></linearGradient></defs><metadata/><path d="M81.094 70.779c0 .028 0 .074-.004.12a.713.713 0 0 1-.017.154c-.012.058-.02.126-.041.2-.017.075-.042.161-.069.253L78.22 79.7a.738.738 0 0 1-.138.28.645.645 0 0 1-.286.172 2.4 2.4 0 0 1-.544.075c-.229.017-.527.023-.893.023-.361 0-.659-.006-.888-.023a2.502 2.502 0 0 1-.533-.086c-.131-.046-.229-.097-.286-.172a.794.794 0 0 1-.137-.27l-2.744-8.194c-.041-.137-.068-.258-.097-.367-.025-.103-.033-.183-.041-.229-.004-.051-.004-.097-.004-.131 0-.07.025-.132.057-.178a.428.428 0 0 1 .2-.132 1.5 1.5 0 0 1 .395-.068c.167-.017.373-.023.63-.023.275 0 .504.012.676.028.166.018.304.04.401.07a.368.368 0 0 1 .212.13.922.922 0 0 1 .103.207l2.073 6.654.063.252.064-.252 2.044-6.654a.708.708 0 0 1 .097-.206.407.407 0 0 1 .212-.132c.097-.028.223-.051.384-.069.16-.017.366-.028.63-.028.252 0 .458.006.618.023.16.011.287.034.373.068.091.035.148.08.183.132a.304.304 0 0 1 .051.178M84.92 70.498a1.514 1.514 0 0 0-.396-.086 4.629 4.629 0 0 0-.624-.034 4.73 4.73 0 0 0-.624.034 1.509 1.509 0 0 0-.395.086.5.5 0 0 0-.212.132.267.267 0 0 0-.058.177v9.037c0 .069.017.126.058.177a.498.498 0 0 0 .212.132c.103.029.229.057.395.075.166.017.372.023.624.023s.464-.006.624-.023a2.29 2.29 0 0 0 .395-.075.444.444 0 0 0 .207-.132.252.252 0 0 0 .063-.177v-9.037a.248.248 0 0 0-.063-.177.45.45 0 0 0-.207-.132M94.185 77.284c0 .516-.097.968-.292 1.363-.195.39-.47.722-.824.985a3.74 3.74 0 0 1-1.255.596 6.04 6.04 0 0 1-1.58.194c-.338 0-.665-.022-.974-.074a5.646 5.646 0 0 1-.836-.195 3.953 3.953 0 0 1-.613-.235 1.718 1.718 0 0 1-.36-.229.718.718 0 0 1-.172-.338c-.042-.148-.063-.377-.063-.675 0-.195.004-.355.02-.47.013-.12.034-.217.064-.286a.266.266 0 0 1 .097-.143.314.314 0 0 1 .155-.035c.074 0 .189.046.332.126.148.086.332.178.55.28.217.104.469.196.761.287.292.086.619.132.985.132.235 0 .441-.029.619-.075.183-.045.337-.114.475-.2a.889.889 0 0 0 .298-.338.99.99 0 0 0 .103-.464.783.783 0 0 0-.19-.527 1.683 1.683 0 0 0-.503-.378 5.1 5.1 0 0 0-.704-.303c-.264-.098-.533-.2-.808-.315a6.623 6.623 0 0 1-.807-.401 2.83 2.83 0 0 1-.705-.544 2.397 2.397 0 0 1-.504-.785c-.126-.303-.189-.67-.189-1.093 0-.436.086-.837.258-1.197.166-.361.412-.67.733-.928.32-.258.71-.458 1.174-.601.458-.138.98-.212 1.552-.212.286 0 .561.023.83.063.27.04.516.091.733.149.218.063.401.126.556.2.148.069.257.132.32.183a.555.555 0 0 1 .138.155.68.68 0 0 1 .063.183c.013.069.021.155.033.258.013.109.017.24.017.395 0 .183-.004.332-.017.447a1.42 1.42 0 0 1-.051.275.271.271 0 0 1-.097.137.298.298 0 0 1-.144.034c-.063 0-.154-.034-.286-.109a5.827 5.827 0 0 0-.487-.229 5.51 5.51 0 0 0-.675-.223 3.162 3.162 0 0 0-.877-.109c-.229 0-.43.023-.601.07a1.06 1.06 0 0 0-.418.205.799.799 0 0 0-.247.31.867.867 0 0 0-.086.377c0 .212.07.39.195.533.132.143.304.263.516.372.212.11.452.212.721.304.27.097.539.2.82.315.274.109.55.24.818.39.27.148.51.331.722.543.212.218.378.476.51.78.131.303.194.658.194 1.07M98.429 70.498a1.46 1.46 0 0 0-.395-.086 4.69 4.69 0 0 0-.625-.034 4.73 4.73 0 0 0-.624.034c-.16.017-.292.046-.395.086a.442.442 0 0 0-.206.132.252.252 0 0 0-.063.177v9.037c0 .069.016.126.063.177a.45.45 0 0 0 .206.132c.103.029.235.057.395.075.166.017.373.023.624.023.252 0 .459-.006.625-.023.166-.017.298-.046.395-.075a.444.444 0 0 0 .206-.132.252.252 0 0 0 .063-.177v-9.037a.248.248 0 0 0-.063-.177.45.45 0 0 0-.206-.132" style="fill:#fff;fill-opacity:1;fill-rule:nonzero;stroke:none;stroke-width:.352778" transform="translate(-71.629 -66.357)"/><path d="M136.06 70.498a1.51 1.51 0 0 0-.402-.086 4.969 4.969 0 0 0-.641-.034c-.258 0-.47.011-.636.034a1.555 1.555 0 0 0-.406.086.437.437 0 0 0-.212.132.252.252 0 0 0-.063.177v9.037c0 .069.016.126.063.177a.442.442 0 0 0 .212.132c.103.029.235.057.406.075.166.017.378.023.636.023s.47-.006.641-.023a2.27 2.27 0 0 0 .401-.075.493.493 0 0 0 .218-.132.272.272 0 0 0 .063-.177v-9.037a.29.29 0 0 0-.063-.177.487.487 0 0 0-.218-.132" style="fill:#f06;fill-opacity:1;fill-rule:nonzero;stroke:none;stroke-width:.352778" transform="translate(-71.629 -66.357)"/><path d="M138.625 72.199v-1.667a.24.24 0 0 1 .057-.149.436.436 0 0 1 .212-.114c.103-.029.235-.052.407-.069.171-.012.383-.017.635-.017.258 0 .476.006.642.017.171.017.309.04.406.069a.49.49 0 0 1 .212.114c.042.04.057.092.057.15v1.666h2.033c.075 0 .132.012.184.04a.308.308 0 0 1 .131.137.87.87 0 0 1 .08.264c.017.114.03.246.03.412 0 .303-.042.521-.11.653-.068.131-.17.2-.303.2h-2.044v3.505c0 .407.08.71.246.916.155.2.447.304.86.304.137 0 .263-.012.372-.029.114-.023.212-.045.303-.068.086-.023.155-.046.218-.07a.592.592 0 0 1 .16-.028c.046 0 .086.012.12.029.042.023.069.063.092.12.021.057.042.137.058.24.016.098.029.224.029.378 0 .247-.025.436-.058.567-.041.132-.091.224-.154.275a.754.754 0 0 1-.28.144c-.12.04-.264.08-.425.108a3.704 3.704 0 0 1-.538.069c-.189.023-.383.029-.584.029-.521 0-.974-.052-1.357-.16a2.398 2.398 0 0 1-.957-.487 1.974 1.974 0 0 1-.555-.836c-.12-.333-.178-.728-.178-1.186v-3.82" style="fill:#3771c8;fill-opacity:1;fill-rule:nonzero;stroke:none;stroke-width:.352778" transform="translate(-71.629 -66.357)"/><path d="M130.35 71.34a2.802 2.802 0 0 0-1.06-.83c-.435-.201-.973-.304-1.609-.304-.578 0-1.134.137-1.666.407-.539.269-1.066.675-1.58 1.22v-1.049a.304.304 0 0 0-.052-.177.368.368 0 0 0-.172-.126 1.298 1.298 0 0 0-.344-.075 4.801 4.801 0 0 0-.555-.028c-.218 0-.395.012-.539.028a1.53 1.53 0 0 0-.35.075c-.09.034-.154.074-.188.126a.317.317 0 0 0-.052.177v9.06a.29.29 0 0 0 .064.178.49.49 0 0 0 .211.131c.104.029.241.058.407.075.166.017.378.023.636.023.257 0 .475-.006.641-.023a2.27 2.27 0 0 0 .401-.075.508.508 0 0 0 .218-.131.272.272 0 0 0 .063-.178v-6.025c.372-.452.727-.796 1.065-1.03.344-.24.682-.361 1.02-.361.263 0 .498.052.698.149.195.097.36.24.487.418.126.177.218.395.286.641.069.252.097.602.097 1.037v5.171c0 .069.021.126.064.178a.557.557 0 0 0 .212.131c.097.029.234.058.4.075.172.017.39.023.648.023.252 0 .464-.006.635-.023.172-.017.304-.046.401-.075a.561.561 0 0 0 .212-.131.272.272 0 0 0 .064-.178v-5.595c0-.659-.064-1.22-.184-1.684a3.238 3.238 0 0 0-.578-1.225M153.898 70.52a.965.965 0 0 0-.395-.108 5.672 5.672 0 0 0-.681-.034c-.35 0-.59.012-.734.034a.652.652 0 0 0-.297.092c-.058.04-.11.126-.144.257l-1.821 4.576h-.03l-1.992-4.484a1.115 1.115 0 0 0-.132-.263.38.38 0 0 0-.2-.144 1.365 1.365 0 0 0-.366-.057c-.16-.006-.373-.012-.648-.012-.297 0-.532.012-.715.035a.98.98 0 0 0-.384.103.264.264 0 0 0-.114.223c0 .092.041.223.126.401l2.909 6.156c.029.075.08.138.149.2a.689.689 0 0 0 .217.144l-1.122 2.245a.391.391 0 0 0-.063.217c.012.058.051.11.126.15.074.04.189.068.343.085.15.017.35.029.607.029.487 0 .854-.029 1.106-.086.257-.052.406-.143.47-.27l1.019-2.37 2.817-6.569a.877.877 0 0 0 .075-.326.26.26 0 0 0-.126-.223" style="fill:#fff;fill-opacity:1;fill-rule:nonzero;stroke:none;stroke-width:.352778" transform="translate(-71.629 -66.357)"/><path d="M110.507 80.709a5.393 5.393 0 1 1 0-10.784c.166 0 .32.029.486.046a3.315 3.315 0 0 0-1.294 2.623 3.328 3.328 0 0 0 6.11 1.832c.046.293.087.585.087.888a5.392 5.392 0 0 1-5.39 5.395m0-14.352c-4.947 0-8.962 4.01-8.962 8.957 0 4.948 4.015 8.962 8.963 8.962 4.948 0 8.956-4.014 8.956-8.962a8.955 8.955 0 0 0-8.956-8.957" style="fill:url(#b);fill-opacity:1;fill-rule:nonzero;stroke:none;stroke-width:.352778" transform="translate(-71.629 -66.357)"/></svg>